<svg xmlns="http://www.w3.org/2000/svg" version="1.1" width="200" height="60" viewBox="350 150 500 300"><rect width="200" height="60" x="0" y="0" fill="none"/><g><circle r="166.66666666666666" cx="358.6143442789713" cy="380.83657917771563" fill="#5555ff" transform="matrix(0.6512191094874938,0,0,0.6512191094874937,0,51.99193382279212)"/><path d="M360.10018430154946 454.2602428669375Q356.98298925775373 445.74568233064343 352.4226483603488 437.7506543016487Q347.83344454587166 429.75562627265396 342.8690228094561 422.04922741438105Q337.8757381559684 414.3716914731803 332.68041308297546 406.78074428319604Q327.48508800998246 399.1897970932119 323.1267875320828 391.51226115201115L323.1267875320828 391.51226115201115L323.1267875320828 391.3102207325059L323.3288279515881 391.3102207325059L324.1658525466814 391.3102207325059Q334.1235589365846 390.6752365569178 340.6754411119702 385.68195190343016Q347.2273232873558 380.7175301670147 351.1815429262449 373.213171728247L351.1815429262449 373.213171728247Q357.6179734333417 362.4184407432505 357.3004813455477 350.8732739143772Q356.98298925775373 339.35697000257613 351.58562376525543 329.8033444516835Q346.1882582727572 320.22085598371865 336.4037293852871 313.78442547662183Q326.6480634148892 307.3479949695249 314.3813236592113 306.71301079393686L314.3813236592113 306.71301079393686Q299.2282921963151 305.06782452082246 285.28750325045064 306.5109703744316Q271.3755772216583 307.98297914511295 259.7438216415685 309.62816541822735L259.7438216415685 309.62816541822735Q260.1479024805791 312.34127962301267 260.4653945683731 319.9322268129968Q260.7828866561671 327.4943110859088 260.9849270756724 338.2024533196888Q261.18696749517767 348.9105955534688 261.50445958297166 361.69686781644594Q261.8219516707657 374.4831400794231 261.90854042198225 387.4714527619055Q262.023992090271 400.459765444388 262.023992090271 412.61105353177715Q262.023992090271 424.7623416191662 262.023992090271 434.1139267505536Q262.023992090271 443.4655118819409 261.8219516707657 449.1803694622333Q261.59104833418826 454.8952270425255 261.18696749517767 454.8952270425255L261.18696749517767 454.8952270425255Q262.22603250977625 454.69318662302027 266.69978465596466 454.8952270425255Q271.1735368021531 455.09726746203074 276.7729427141566 455.01067871081426Q282.37234862616015 454.8952270425255 288.0872062064524 454.4911462035149Q293.80206378674467 454.05820244743217 297.3522025866232 452.615056593823L297.3522025866232 452.615056593823Q297.1501621671179 448.6608369549339 296.71721841103516 442.02236602833176Q296.31313757202463 435.35503218465743 295.99564548423064 427.9949883312508Q295.6781533964366 420.6060815607719 295.6781533964366 413.6501185463757Q295.6781533964366 406.69415553197956 296.31313757202463 401.90291129799715L296.31313757202463 401.90291129799715L296.71721841103516 402.53789547358514Q301.0755188889348 407.9352609660834 305.4626822839067 415.0066756487683Q309.82098276180636 422.04922741438105 313.544299064118 429.3226825165712Q317.2964782835018 436.59613761876136 320.4136733272976 443.2634714624357Q323.5308683710934 449.90194238903786 325.60899840029055 454.69318662302027L325.60899840029055 454.69318662302027L325.81103881979584 454.69318662302027Q335.1626239511832 455.2993078815361 344.11012824356 454.77977537423675Q353.0287696188646 454.2602428669375 360.30222472105476 454.2602428669375L360.30222472105476 454.2602428669375L360.10018430154946 454.2602428669375ZM290.07874748443305 338.72198582698803Q297.3522025866232 335.80683120269754 304.4236172693081 335.5182020319757Q311.4661690349208 335.2007099441817 316.05537284939794 339.35697000257613L316.05537284939794 339.35697000257613Q318.97052747368843 341.63714045127864 320.2116329077923 345.47590842187896Q321.4527383418962 349.3146763924794 321.04865750288565 353.18230728015186Q320.6157137468029 357.0210752507523 318.45099496638915 360.2248590457646Q316.25741326890324 363.4575057578491 312.3031936300141 364.29453035294245L312.3031936300141 364.29453035294245Q307.3099089765264 365.13155494803567 301.71050306452287 364.9006516114583Q296.11109715251933 364.6986111919529 291.3198529185369 364.29453035294245L291.3198529185369 364.29453035294245L291.11781249903163 364.29453035294245Q290.6848687429489 362.01435990423994 290.59827999173234 358.6662615238667Q290.48282832344364 355.3470260605656 290.48282832344364 351.8257501777593Q290.48282832344364 348.2756113778807 290.39623957222705 344.8697871633631Q290.28078790393835 341.4351000317733 290.07874748443305 338.72198582698803L290.07874748443305 338.72198582698803ZM442.61926421092124 386.1148956595129Q441.58019919632267 384.873790225409 441.1472554402399 384.03676563031576Q440.7431746012294 383.1997410352224 441.58019919632267 381.75659518161325L441.58019919632267 381.75659518161325Q445.73645925471703 374.68518049892833 448.7382026302241 366.3726603821396Q451.73994600573116 358.06014026535087 451.73994600573116 349.3146763924794L451.73994600573116 349.3146763924794Q451.73994600573116 337.68292081238945 448.01662970341954 329.6878927833947Q444.2644504840357 321.6928647544 437.8280199769389 316.5841284326236Q431.391589469842 311.50425502791927 422.96361768476453 309.2240845792168Q414.5645088167592 306.9439141305144 405.41496410487713 306.5109703744316Q396.26541939299506 306.10688953542103 386.9138342616077 307.3479949695249Q377.5622491302203 308.5891004036288 369.2497290134316 310.8692708523313L369.2497290134316 310.8692708523313L369.0476885939263 311.10017418890874Q369.6538098524421 347.2365463632821 369.0476885939263 382.68020852792307Q368.41270441833825 418.12387069256414 369.6538098524421 454.05820244743217L369.6538098524421 454.05820244743217Q370.6928748670407 454.4911462035149 371.84739154992803 454.4911462035149Q373.00190823281537 454.4911462035149 374.24301366691924 454.4911462035149L374.24301366691924 454.4911462035149Q381.71850918861475 454.69318662302027 390.34852139319753 455.2993078815361Q398.97853359778026 455.9342920571241 407.5796828852909 455.8188403888353Q416.20969508987366 455.73225163761884 424.3201747871571 454.5777349547315Q432.4306544844406 453.45208118891634 439.06912541104276 450.1039828085431Q445.73645925471703 446.784747345242 450.4122518204107 440.6658089259392Q455.08804438610446 434.5180075895642 456.73323065921886 424.7623416191662L456.73323065921886 424.7623416191662Q457.97433609332273 418.12387069256414 457.1661744153016 412.6976422829936Q456.3291498202083 407.3002767904954 454.13556812272236 402.82652464430697Q451.9708493423086 398.38163541519083 448.94024304972936 394.3119641080129Q445.9384996742223 390.27115571790733 442.61926421092124 386.1148956595129L442.61926421092124 386.1148956595129ZM423.0790693530532 420.6060815607719Q421.0009393238561 423.0882924289796 418.2012363678543 424.24280911186696Q415.3726704947803 425.3973257947543 412.168886699768 425.6859549654761Q408.9362399876835 426.0034470532701 405.7324561926712 425.9168583020535Q402.49980948058663 425.80140663376477 399.5846548562961 425.80140663376477L399.5846548562961 425.80140663376477L399.18057401728555 425.59936621425953Q397.50652482709893 423.0882924289796 396.9004035685831 419.36497612666795Q396.26541939299506 415.6127969072841 396.38087106128376 411.57198851717845Q396.46745981250035 407.5023172100006 397.10244398808834 403.5769604881837Q397.7085652466042 399.62274084929464 398.5455898416975 396.5055458054989L398.5455898416975 396.5055458054989Q402.49980948058663 396.9096266445094 406.656069538981 397.02507831279814Q410.81232959737537 397.11166706401474 414.7665492362645 398.1507320786133L414.7665492362645 398.1507320786133Q417.45080052397753 398.7857162542013 419.9618743092575 400.7483946151098Q422.44408517746524 402.7399358930905 423.6851906115691 405.22214676129823L423.6851906115691 405.22214676129823Q425.15719938225044 408.7722855611767 425.243788133467 413.1305860390764Q425.35923980175573 417.48888651697604 423.0790693530532 420.6060815607719L423.0790693530532 420.6060815607719ZM422.877028933548 361.37937572865195Q421.20297974336137 364.4965707724477 418.4032767873596 366.0551682943456Q415.60357383135783 367.61376581624353 412.25547545098453 368.017846655254Q408.9362399876835 368.45079041133675 405.41496410487713 368.2487499918315Q401.8648253049986 368.017846655254 398.7476302612028 367.61376581624353L398.7476302612028 367.61376581624353Q396.9004035685831 360.34031071405326 397.6219764953877 353.4709364508737Q398.34354942219227 346.6304251047663 397.9394685831817 341.8391808707839L397.9394685831817 341.8391808707839Q401.05666362697747 340.1939945976695 405.7324561926712 340.28058334888595Q410.40824875836483 340.3960350171747 414.5645088167592 341.23305961226805L414.5645088167592 341.23305961226805Q417.8837442800603 342.0412212902891 420.4814068165568 343.83072214876455Q423.0790693530532 345.5913600901677 424.7242556261677 348.9105955534688L424.7242556261677 348.9105955534688Q426.3983048163543 352.2298310167699 425.35923980175573 355.54906648007085Q424.3201747871571 358.8971648604442 422.877028933548 361.37937572865195L422.877028933548 361.37937572865195Z " fill="#ffffff" transform="matrix(0.6512191094874938,0,0,0.6512191094874937,0,51.99193382279212)"/><path d="M686.6517544041567 422.81415498449854Q684.2278143467661 416.19320760551506 680.6816798183614 409.97625023609675Q677.1131014005365 403.7592928666783 673.2527524202478 397.7667743914629Q669.3699595505389 391.79669980566763 665.330059454888 385.89395688813323Q661.2901593592371 379.99121397059884 657.9011320567744 374.0211393848036L657.9011320567744 374.0211393848036L657.9011320567744 373.86403215886156L658.0582392827164 373.86403215886156L658.7091120759046 373.86403215886156Q666.4522539259021 373.37026659161535 671.5470168243063 369.4874737219064Q676.6417797227106 365.6271247416178 679.7165925732893 359.7917134923443L679.7165925732893 359.7917134923443Q684.7215799140124 351.3976988491584 684.4746971303892 342.4201430810453Q684.2278143467661 333.46503120235246 680.0308070251733 326.03610380423885Q675.8337997035803 318.58473251670495 668.2253211901045 313.5797451759818Q660.6392865660489 308.57475783525877 651.1006335624286 308.0809922680125L651.1006335624286 308.0809922680125Q639.3175916167802 306.8016905710564 628.4771930267835 307.92388504207054Q617.6592383262072 309.068523402505 608.6143508898332 310.3478250994611L608.6143508898332 310.3478250994611Q608.9285653417171 312.4575507049677 609.1754481253403 318.36029362250207Q609.4223309089634 324.2405926506162 609.5794381349053 332.5672756255411Q609.7365453608473 340.8939586004661 609.9834281444705 350.83660161365134Q610.2303109280936 360.7792446268367 610.2976425963544 370.878994865964Q610.3874181540356 380.97874510509126 610.3874181540356 390.4276225510303Q610.3874181540356 399.87649999696947 610.3874181540356 407.1483201691411Q610.3874181540356 414.4201403413127 610.2303109280936 418.8640304465287Q610.0507598127313 423.30792055174476 609.7365453608473 423.30792055174476L609.7365453608473 423.30792055174476Q610.5445253799776 423.15081332580274 614.0233282401214 423.30792055174476Q617.5021311002652 423.46502777768666 621.8562456478 423.3976961094259Q626.2103601953349 423.30792055174476 630.654250300551 422.99370609986073Q635.098140405767 422.65704775855653 637.8587388044618 421.5348532875424L637.8587388044618 421.5348532875424Q637.7016315785197 418.46004043696365 637.3649732372155 413.29794587029863Q637.0507587853316 408.1134074142132 636.8038760017084 402.3902156120411Q636.5569932180854 396.64457992044873 636.5569932180854 391.23560257016055Q636.5569932180854 385.82662521987237 637.0507587853316 382.1009395761054L637.0507587853316 382.1009395761054L637.3649732372155 382.59470514335163Q640.7540005396783 386.7917124649445 644.1654717315612 392.29046537291384Q647.5544990340239 397.7667743914629 650.4497607692405 403.4226345253741Q653.3674663938773 409.07849465928535 655.7914064512678 414.2630331153708Q658.2153465086583 419.4251276820358 659.8313065469187 423.15081332580274L659.8313065469187 423.15081332580274L659.9884137728607 423.15081332580274Q667.2602339450323 423.62213500362867 674.2178396653201 423.2181449940636Q681.1530014961875 422.81415498449854 686.8088616300987 422.81415498449854L686.8088616300987 422.81415498449854L686.6517544041567 422.81415498449854ZM632.2028786705505 332.97126563510625Q637.8587388044618 330.70443280365765 643.357491712431 330.4799939094548Q648.8338007309801 330.2331111258317 652.402379148805 333.46503120235246L652.402379148805 333.46503120235246Q654.6692119802536 335.23809846655473 655.6342992253258 338.2231357594524Q656.599386470398 341.20817305235 656.285172018514 344.21565423466797Q655.9485136772098 347.20069152756554 654.2652219706886 349.691963253217Q652.559486374747 352.20567886828866 649.4846735241683 352.8565516614769L649.4846735241683 352.8565516614769Q645.6018806544594 353.507424454665 641.2477661069245 353.3278733393028Q636.8936515593896 353.1707661133608 633.1679659156226 352.8565516614769L633.1679659156226 352.8565516614769L633.0108586896806 352.8565516614769Q632.6742003483764 351.0834843972745 632.6068686801156 348.4799932245217Q632.5170931224345 345.8989459411892 632.5170931224345 343.1607914319147Q632.5170931224345 340.40019303321986 632.4497614541735 337.7518140816265Q632.3599858964924 335.08099124061283 632.2028786705505 332.97126563510625L632.2028786705505 332.97126563510625ZM755.0158415783383 342.82413309061036Q749.831303122253 342.50991863872645 745.8811785842831 342.35281141278443Q741.9310540463134 342.19570418684253 739.1704556476186 342.01615307148023L739.1704556476186 342.01615307148023Q738.6991339697927 342.01615307148023 737.3973883834162 342.01615307148023Q736.0956427970398 342.01615307148023 734.8163411000837 341.94882140321937Q733.5145955137073 341.8590458455382 732.459732710954 341.94882140321937Q731.427313797621 342.01615307148023 731.427313797621 342.19570418684253L731.427313797621 342.19570418684253Q731.427313797621 344.1258786769868 731.0233237880559 345.98872149887023Q730.6193337784908 347.85156432075377 730.7764410044327 350.4326116040863L730.7764410044327 350.4326116040863Q729.6318026439983 347.67201320539147 728.015842605738 346.14582872481225Q726.3998825674777 344.61964424423303 724.3126008513914 343.87899589336365Q722.2028752458848 343.1607914319147 719.7116035202333 343.0710158742335Q717.1978879051617 343.00368420597266 714.2801822805249 343.00368420597266L714.2801822805249 343.00368420597266Q708.6243221466136 343.1607914319147 703.6193348058905 345.98872149887023Q698.6143474651674 348.8166515658259 694.9784373790817 353.7318633488679Q691.3425272929958 358.66951902133013 689.2328016874892 365.4475736262555Q687.1455199714029 372.2480721206012 687.1455199714029 380.32787231190304L687.1455199714029 380.32787231190304Q687.1455199714029 386.7917124649445 688.5145972260402 394.37774708900014Q689.8836744806774 401.98622560247605 692.8013801053141 408.4500657555175Q695.6966418405307 414.9139059085589 700.1405319457467 419.2680204560938Q704.5844220509628 423.62213500362867 710.8911549780622 423.62213500362867L710.8911549780622 423.62213500362867Q716.5470151119735 423.62213500362867 722.4497580295078 420.88398049435415Q728.3525009470422 418.1458259850796 732.2352938167512 414.2630331153708L732.2352938167512 414.2630331153708Q732.2352938167512 415.87899315363114 731.8986354754469 417.0011876246453Q731.584421023563 418.1458259850796 731.584421023563 419.918893249282L731.584421023563 419.918893249282Q731.584421023563 421.1981949462382 731.988411033128 422.1857260807306Q732.3924010426931 423.15081332580274 733.5145955137073 423.46502777768666L733.5145955137073 423.46502777768666Q735.2876627779096 423.46502777768666 736.9933983738512 423.2181449940636Q738.6991339697927 422.99370609986073 740.472201233995 422.99370609986073L740.472201233995 422.99370609986073Q743.0532485173276 422.99370609986073 745.7240713583412 423.2181449940636Q748.3948941993549 423.46502777768666 750.9759414826874 423.46502777768666L750.9759414826874 423.46502777768666L752.9061159728317 423.46502777768666Q754.8587343523964 423.15081332580274 754.9260660206571 421.04108772029616Q755.0158415783383 418.95380600420987 755.0158415783383 416.8440803987033L755.0158415783383 416.8440803987033Q756.1380360493524 399.56228554508544 755.4871632561642 382.6620368116125Q754.8587343523964 365.7842319675597 755.3300560302222 348.3228859985797L755.3300560302222 348.3228859985797L755.3300560302222 346.7069259603193Q755.3300560302222 345.7418387152472 755.2627243619613 344.77675147017504Q755.1729488042803 343.8116642251028 755.0158415783383 342.82413309061036L755.0158415783383 342.82413309061036ZM707.9958932428457 374.9862266298757Q708.8038732619759 370.94632653422485 712.5968905740036 367.80418201538527Q716.3899078860314 364.6395936071254 723.0108552650149 364.6395936071254L723.0108552650149 364.6395936071254Q726.3998825674777 364.6395936071254 728.1056181634191 365.1333591743716Q729.8113537593606 365.6271247416178 730.5295582208097 367.4001920058201Q731.2477626822588 369.17325927002247 731.3375382399399 372.49495490422436Q731.427313797621 375.79420664900596 731.427313797621 381.4500667829172L731.427313797621 381.4500667829172Q731.427313797621 385.9837324458144 731.3375382399399 389.6196425319002Q731.2477626822588 393.255552617986 730.3724509948677 395.74682434363734Q729.4746954180564 398.2605399587091 727.454745370231 399.6296172133463Q725.4347953224054 400.9986944679836 721.3948952267546 400.9986944679836L721.3948952267546 400.9986944679836Q714.6168406218292 400.9986944679836 710.8238233098014 395.92637545899964Q707.0083621083533 390.8316125605955 707.0083621083533 383.5597923884238L707.0083621083533 383.5597923884238Q707.0083621083533 381.4500667829172 707.1879132237156 379.27300950914974Q707.3450204496575 377.0959522353823 707.9958932428457 374.9862266298757L707.9958932428457 374.9862266298757ZM795.8861642126733 400.9986944679836L795.8861642126733 365.7842319675597Q800.9135954428167 365.94133919350173 806.4796800190469 366.25555364538565Q812.045764595277 366.59221198668996 820.3051159019411 367.0635336645159L820.3051159019411 367.0635336645159Q820.619330353825 364.01116470335745 820.776437579767 362.2156535497348Q820.9335448057091 360.4425862855324 821.0233203633902 359.32039181451825Q821.1130959210712 358.1757534540839 821.1130959210712 357.1433345407509Q821.1130959210712 356.0884717379976 821.1130959210712 354.31540447379524L821.1130959210712 354.31540447379524Q821.2702031470133 352.04857164234664 821.1130959210712 350.3428360464051Q820.9335448057091 348.659544339884 821.2702031470133 346.86403318626134L821.2702031470133 346.86403318626134L796.5370370058615 346.86403318626134Q795.7290569867314 342.82413309061036 796.6268125635427 339.6819885717708Q797.5021242509338 336.5398440529312 801.2278098947006 335.88897125974296L801.2278098947006 335.88897125974296Q803.4946427261492 335.55231291843876 806.2327972354237 335.1483229088737Q808.9933956341185 334.7443328993085 811.7315501433931 334.4301184474246Q814.4697046526676 334.1159039955407 816.9834202677392 333.9363528801784Q819.4971358828109 333.7792456542364 821.4273103729553 333.9363528801784L821.4273103729553 333.9363528801784Q821.7415248248392 331.6919639381501 822.0781831661434 328.93136553945527Q822.3923976180274 326.19321103018075 822.5495048439694 323.27550540554404Q822.7290559593316 320.3802436703275 822.4821731757086 317.4625380456908Q822.2352903920855 314.54483242105397 821.4273103729553 312.1208923636635L821.4273103729553 312.1208923636635Q813.8412757488996 311.80667791177945 805.8288072258587 312.3677751472865Q797.838782592238 312.9288723827936 791.0382840978923 315.1957052142422L791.0382840978923 315.1957052142422Q785.5619750793433 316.9687724784446 782.1505038874602 320.6046825645304Q778.7614765849976 324.2405926506162 776.898633763114 328.6844827558322Q775.0582348306509 333.12837286104815 774.5644692634046 337.81914574988735Q774.0707036961584 342.50991863872645 774.4073620374627 346.5498187343773L774.4073620374627 346.5498187343773Q771.8263147541302 346.3927115084354 768.9983846871745 346.3927115084354Q766.1704546202188 346.3927115084354 762.7589834283359 346.3927115084354L762.7589834283359 346.3927115084354L763.2527489955821 366.09844641944375Q766.4846690721029 365.94133919350173 769.3125991390584 365.94133919350173Q772.1405292060141 365.94133919350173 774.7215764893466 365.94133919350173L774.7215764893466 365.94133919350173Q774.7215764893466 368.36527925089234 774.6542448210857 372.8989449137894Q774.5644692634046 377.4101666872663 774.4746937057234 383.1558023788587Q774.4073620374627 388.8789941810308 774.4073620374627 395.02861988218837Q774.4073620374627 401.1782455833458 774.4746937057234 406.744330159576Q774.5644692634046 412.3104147358061 774.6542448210857 416.75430484102213Q774.7215764893466 421.1981949462382 775.0582348306509 423.15081332580274L775.0582348306509 423.15081332580274Q777.1455165467371 423.46502777768666 779.6592321618089 423.30792055174476Q782.1505038874602 423.15081332580274 784.911102286155 422.9039305421797Q787.6492567954296 422.65704775855653 790.4098551941244 422.4999405326145Q793.1480097033989 422.3428333066726 795.8861642126733 422.65704775855653L795.8861642126733 422.65704775855653L795.8861642126733 400.9986944679836ZM847.4397782110631 382.75181236929365Q849.0557382493234 383.06602682117756 852.6243166671484 383.2231340471196Q856.1704511955531 383.40268516248176 860.6143413007691 383.40268516248176Q865.0582314059851 383.40268516248176 869.9061115207662 383.2231340471196Q874.7539916355472 383.06602682117756 879.0407745148214 382.75181236929365Q883.3275573940954 382.41515402798933 886.469701912935 382.1009395761054Q889.6118464317746 381.7867251242215 890.756484792209 381.4500667829172L890.756484792209 381.4500667829172Q891.2278064700349 374.6720121779918 890.756484792209 368.0510647990083Q890.2627192249628 361.40767353060465 887.9285547252534 355.9313645120556Q885.5719463361237 350.4326116040863 881.0607245626468 346.5498187343773Q876.5270588997496 342.66702586466846 869.0981315016361 341.3877241677123L869.0981315016361 341.3877241677123Q863.2851641417827 339.92887135539394 857.1355384406253 340.08597858133595Q851.008356628888 340.24308580727785 845.5096037209188 341.94882140321937Q840.0108508129495 343.6321131097406 835.6567362654146 346.9538087439425Q831.2801778284594 350.27550437814426 829.1928961123731 354.9438333775632L829.1928961123731 354.9438333775632Q827.2402777328085 360.2854790595905 826.6791804973014 365.8515636358206Q826.1180832617944 371.44009210147107 825.6243176945482 377.4101666872663L825.6243176945482 377.4101666872663Q825.3101032426641 384.0311140662497 825.9609760358524 390.6745053346535Q826.5894049396203 397.29545271363685 828.384916093243 403.19819563117125Q830.1579833574452 409.07849465928535 833.0532450926618 414.0161503317476Q835.9709507172986 418.95380600420987 840.3250652648334 422.0061749653683L840.3250652648334 422.0061749653683Q844.2078581345423 424.2730077968169 848.7415237974394 424.9238805900051L848.7415237974394 424.9238805900051Q853.2527455709163 424.9238805900051 858.6841668106248 425.23809504188904Q864.093144160913 425.57475338319335 869.255238727578 425.23809504188904Q874.4397771836633 424.9238805900051 878.7938917311983 423.30792055174476Q883.1480062787331 421.6919605134844 885.908604677428 417.8091676437754L885.908604677428 417.8091676437754Q887.030799148442 416.8440803987033 887.7714474993114 414.33036478363164Q888.4896519607604 411.83909305798016 888.9834175280066 408.3602901978364Q889.4547392058325 404.8814873376925 889.7913975471369 400.8415872420416Q890.1056119990208 396.80168714639063 890.4198264509048 392.60467982479776L890.4198264509048 392.60467982479776Q888.6467591867024 392.11091425755154 885.908604677428 392.0435825892907Q883.1480062787331 391.95380703160953 880.1629689858355 392.11091425755154Q877.1779316929378 392.29046537291384 874.4397771836633 392.3577970411747Q871.6791787849686 392.44757259885586 870.0632187467082 392.29046537291384L870.0632187467082 392.29046537291384Q870.3998770880124 398.9114127518972 868.0432686988827 402.2106644966788Q865.7091041991733 405.5323601308807 862.3200768967106 406.18323292406893Q858.9086057048276 406.83410571725705 855.3624711764229 405.0385945636345Q851.8163366480183 403.2655272994321 849.8637182684536 399.56228554508544L849.8637182684536 399.56228554508544Q848.0906510042513 396.64457992044873 847.8437682206281 393.5697670698699Q847.5968854370051 390.4949542192912 847.4397782110631 385.64707410451007L847.4397782110631 385.64707410451007L847.4397782110631 382.75181236929365ZM866.9884058961295 357.704431776258Q869.9061115207662 359.16328458857635 871.6118471167077 362.05854632379277Q873.295138823229 364.9762519484296 873.295138823229 368.20817202495033L873.295138823229 368.20817202495033Q873.295138823229 369.4874737219064 873.295138823229 369.89146373147156Q873.295138823229 370.2954537410366 872.4198271358379 370.3852292987178Q871.5220715590266 370.4750048563989 869.41234595352 370.2954537410366Q867.3250642374337 370.1383465150946 863.1280569158408 370.1383465150946L863.1280569158408 370.1383465150946Q856.9784312146833 370.1383465150946 853.8362866958437 370.22812207277576Q850.6716982875838 370.2954537410366 849.2128454752655 370.07101484683375Q847.7764365523673 369.8241320632107 847.6866609946862 369.0834837123413Q847.5968854370051 368.36527925089234 847.9335437783093 366.59221198668996L847.9335437783093 366.59221198668996Q848.2477582301933 364.4824863811834 848.9884065810626 362.552311891039Q849.7066110425117 360.5996935114744 851.16546385483 359.16328458857635Q852.6243166671484 357.704431776258 855.048256724539 356.89645175712775Q857.4721967819296 356.0884717379976 861.3325457622182 356.0884717379976L861.3325457622182 356.0884717379976Q863.1280569158408 356.0884717379976 864.4073586127969 356.4924617475627Q865.7091041991733 356.89645175712775 866.9884058961295 357.704431776258L866.9884058961295 357.704431776258ZM928.0806728981394 312.7717651568517Q925.3425183888648 313.1084234981559 922.58191999017 312.9288723827936Q919.8437654808956 312.7717651568517 917.0831670822008 312.52488237322854Q914.3450125729262 312.30044347902566 911.8312969578546 312.1208923636635Q909.3400252322032 311.96378513772146 907.2302996266966 312.30044347902566L907.2302996266966 312.30044347902566Q906.9160851748127 315.3528124401842 906.8263096171315 319.23560530989306Q906.7589779488707 323.118398179602 906.7589779488707 327.3154055011949Q906.7589779488707 331.5124128227878 906.9160851748127 335.6420884761199Q907.0731924007546 339.7717641294519 907.0731924007546 343.3178986578566L907.0731924007546 343.3178986578566Q904.4921451174221 343.3178986578566 901.6642150504665 343.3178986578566Q898.8362849835107 343.3178986578566 895.6043649069901 343.1607914319147L895.6043649069901 343.1607914319147L895.1105993397439 362.866526342923Q898.4996266422065 362.866526342923 901.3275567091623 362.866526342923Q904.1554867761179 362.866526342923 906.7589779488707 362.709419116981L906.7589779488707 362.709419116981Q906.5794268335084 374.5149049520498 906.9160851748127 385.5797424362492Q907.2302996266966 396.64457992044873 909.3400252322032 409.07849465928535L909.3400252322032 409.07849465928535Q911.4273069482895 414.10592588942876 916.2078553948097 417.0011876246453Q920.9659599519098 419.918893249282 927.1155856530672 421.37774606160036Q933.2427674648045 422.81415498449854 940.2003731850921 423.2181449940636Q947.1579789053799 423.62213500362867 953.6218190584212 423.30792055174476L953.6218190584212 423.30792055174476Q954.4297990775515 420.88398049435415 954.6542379717544 417.96627486971744Q954.9011207553774 415.0710131345009 954.7440135294354 412.1533075098642Q954.5869063034934 409.25804577464766 954.2502479621892 406.49744737595285Q953.9360335103053 403.7592928666783 953.6218190584212 401.49246003522984L953.6218190584212 401.49246003522984Q950.8612206597265 401.64956726117174 947.2253105736406 401.49246003522984Q943.5894004875548 401.3353528092878 940.0432659591502 400.59470445841845Q936.4746875413252 399.87649999696947 933.4223185801667 398.574754410593Q930.347505729588 397.29545271363685 928.7315456913275 395.02861988218837L928.7315456913275 395.02861988218837Q928.5744384653856 387.75679971001665 928.5744384653856 379.43011673509176Q928.5744384653856 371.10343376016675 928.5744384653856 362.3952046650971L928.5744384653856 362.3952046650971L953.6218190584212 362.3952046650971Q953.2851607171169 360.2854790595905 953.5320435007402 357.3004417666928Q953.7789262843633 354.31540447379524 953.9360335103053 351.3976988491584Q954.0931407362473 348.4799932245217 953.9360335103053 345.98872149887023Q953.7789262843633 343.4750058837986 952.6342879239288 342.19570418684253L952.6342879239288 342.19570418684253Q944.3973805066851 342.66702586466846 938.8312959304549 343.00368420597266Q933.2427674648045 343.3178986578566 928.2377801240814 343.4750058837986L928.2377801240814 343.4750058837986Q928.2377801240814 341.0510658264081 928.1704484558205 338.7842329949595Q928.0806728981394 336.5398440529312 928.0806728981394 334.4301184474246L928.0806728981394 334.4301184474246L928.0806728981394 312.7717651568517ZM962.172940927549 309.5398450803309L962.172940927549 309.8765034216351Q961.8587264756651 315.5323635555464 961.7016192497231 319.5722636511974Q961.5220681343608 323.61216374684824 961.5220681343608 327.71939551075997Q961.5220681343608 331.8490711640921 961.7016192497231 336.76428294713406Q961.8587264756651 341.7019386195962 961.8587264756651 348.9737587917679L961.8587264756651 348.9737587917679L961.8587264756651 349.13086601770993Q963.4746865139255 349.13086601770993 966.5494993645043 349.13086601770993Q969.6018683256627 349.13086601770993 972.6766811762413 349.06353434944907Q975.7514940268202 348.9737587917679 977.9285513005876 348.9737587917679Q980.1056085743551 348.9737587917679 980.1056085743551 348.9737587917679L980.1056085743551 348.9737587917679Q980.1056085743551 347.85156432075377 980.1056085743551 342.50991863872645Q980.1056085743551 337.1682729566991 980.0382769060942 330.6371011353968Q979.9485013484132 324.08348542467417 979.8811696801522 318.02363528119787Q979.791394122471 311.96378513772146 979.791394122471 309.22563062844694L979.791394122471 309.22563062844694Q979.4771796705871 308.57475783525877 976.9634640555155 308.4849822775776Q974.4497484404437 308.41765060931675 971.3973794792853 308.66453339293986Q968.3225666287066 308.8889722871427 965.6517437876929 309.22563062844694Q962.9809209466792 309.5398450803309 962.330048153491 309.5398450803309L962.330048153491 309.5398450803309L962.172940927549 309.5398450803309ZM1056.2352814879546 367.4001920058201Q1056.2352814879546 358.66951902133013 1053.0033614114336 351.6445816327816Q1049.771441334913 344.61964424423303 1042.162962821437 341.3877241677123L1042.162962821437 341.3877241677123Q1037.9659554998443 340.40019303321986 1032.9609681591212 339.8390957977128Q1027.955980818398 339.2779985622057 1022.9285495882547 339.2779985622057Q1017.9235622475317 339.2779985622057 1013.4796721423156 339.7717641294519Q1009.0357820370996 340.24308580727785 1005.9609691865209 341.0510658264081L1005.9609691865209 341.0510658264081Q998.0607201105813 343.1607914319147 993.7739372313074 349.13086601770993Q989.4871543520333 355.12338449292537 989.2402715684102 362.1483218814739Q988.9933887847872 369.17325927002247 993.1230644381191 375.7268749807451Q997.2527400914512 382.25804680204743 1006.2976275278252 385.33285965262615L1006.2976275278252 385.33285965262615Q1010.808849301302 387.26303414277044 1015.499622190141 388.0710141619007Q1020.1903950789801 388.8789941810308 1023.9160807227471 389.9338569837841Q1027.6193224770939 390.9887197865374 1029.8861553085426 392.9188942766818Q1032.152988139991 394.87151265624635 1031.6592225727447 398.7543055259553L1031.6592225727447 398.7543055259553Q1031.8163297986866 403.4226345253741 1028.7639608375282 405.2181456789968Q1025.6891479869496 406.99121294319906 1021.9634623431825 406.587222933634Q1018.2602205888359 406.18323292406893 1014.938524954634 403.8266245349392Q1011.6168293204321 401.49246003522984 1011.4597220944902 397.7667743914629L1011.4597220944902 397.7667743914629Q1006.4547347537671 397.7667743914629 999.6766801488418 397.54233549726Q992.8761816544959 397.29545271363685 987.556979861889 397.9463255068251L987.556979861889 397.9463255068251L987.556979861889 398.2605399587091L987.556979861889 398.7543055259553Q987.556979861889 405.2181456789968 990.2053588134823 410.3802402456618Q992.8761816544959 415.5423348123268 997.6567301010163 419.1109132301519Q1002.4148346581162 422.65704775855653 1009.0357820370996 424.4301150227589Q1015.6567294160831 426.22562617638147 1023.9160807227471 425.88896783507727L1023.9160807227471 425.88896783507727Q1033.2751826110052 426.0460750610193 1041.1978755763648 422.65704775855653Q1049.1205685417249 419.2680204560938 1052.8238102960715 411.34532749073395L1052.8238102960715 411.34532749073395Q1055.8986231466502 402.457547280302 1055.09064312752 396.39769713682557Q1054.28266310839 390.33784699334916 1050.7365285799851 384.5248796334959L1050.7365285799851 384.5248796334959Q1047.0108429362183 379.6769995187148 1039.0881499708585 377.4999422449475Q1031.1879008949188 375.32288497118003 1022.1205695691247 374.0211393848036L1022.1205695691247 374.0211393848036Q1018.4173278147778 372.7193937984271 1016.4647094352133 370.1383465150946Q1014.534534945069 367.5572992317621 1014.534534945069 364.9762519484296Q1014.534534945069 362.3952046650971 1016.3973777669523 360.19570350190935Q1018.2602205888359 358.0186462281419 1021.9634623431825 357.3677734349537L1021.9634623431825 357.3677734349537Q1024.0731879486893 357.21066620901166 1026.2502452224567 357.95131455988104Q1028.427302496224 358.66951902133013 1030.1330380921654 360.1283718336485Q1031.8163297986866 361.58722464596684 1032.7140853754981 363.51739913611124Q1033.6118409523094 365.4475736262555 1033.118075385063 367.4001920058201L1033.118075385063 367.4001920058201Q1038.6168282930325 368.52238647683424 1044.8337856624507 368.36527925089234Q1051.0507430318692 368.20817202495033 1056.2352814879546 367.4001920058201L1056.2352814879546 367.4001920058201ZM1154.6292927064746 369.8241320632107Q1153.8213126873443 368.85904481813856 1153.5070982354605 368.20817202495033Q1153.1928837835765 367.5572992317621 1153.8213126873443 366.43510476074795L1153.8213126873443 366.43510476074795Q1157.0532327638653 360.9363518527786 1159.4098411529949 354.47251169973725Q1161.7440056527043 348.0086715466958 1161.7440056527043 341.20817305235L1161.7440056527043 341.20817305235Q1161.7440056527043 332.163285615976 1158.8487439174878 325.9463282465577Q1155.931038292851 319.7293708771394 1150.9260509521278 315.7568024497493Q1145.9210636114049 311.80667791177945 1139.3674479006822 310.0336106475771Q1132.8138321899596 308.2605433833748 1125.72156313315 307.92388504207054Q1118.6068501869206 307.60967059018657 1111.335030014749 308.57475783525877Q1104.0632098425772 309.5398450803309 1097.5993696895357 311.31291234453323L1097.5993696895357 311.31291234453323L1097.4422624635938 311.4924634598955Q1097.9135841414197 339.59221301408974 1097.4422624635938 367.15330922219704Q1096.9484968963475 394.71440543030434 1097.9135841414197 422.65704775855653L1097.9135841414197 422.65704775855653Q1098.7215641605499 422.99370609986073 1099.6193197373614 422.99370609986073Q1100.4946314247522 422.99370609986073 1101.4821625592447 422.99370609986073L1101.4821625592447 422.99370609986073Q1107.295129919098 423.15081332580274 1114.0058528557624 423.62213500362867Q1120.6941319030068 424.1159005708749 1127.4048548396713 424.02612501319373Q1134.115577776336 423.958793344933 1140.4223107034354 423.0610377681216Q1146.729043630535 422.1857260807306 1151.8911381972 419.5822349079778Q1157.0532327638653 417.0011876246453 1160.689142849951 412.24308306754523Q1164.3250529360366 407.462534621025 1165.626798522413 399.87649999696947L1165.626798522413 399.87649999696947Q1166.5918857674853 394.71440543030434 1165.9410129742969 390.4949542192912Q1165.3125840705293 386.2979468976983 1163.6068484745877 382.8191440375545Q1161.901112878646 379.3627850668309 1159.5669483789368 376.198196658571Q1157.2327838792273 373.05605213973143 1154.6292927064746 369.8241320632107L1154.6292927064746 369.8241320632107ZM1139.4572234583634 396.64457992044873Q1137.841263420103 398.574754410593 1135.6417622569152 399.4725099874043Q1133.4647049831478 400.3702655642157 1130.9734332574965 400.59470445841845Q1128.4597176424247 400.8415872420416 1125.946002027353 400.77425557378075Q1123.4547303017016 400.6844800160996 1121.1878974702531 400.6844800160996L1121.1878974702531 400.6844800160996L1120.873683018369 400.5273727901576Q1119.5719374319929 398.574754410593 1119.0781718647463 395.6794926753765Q1118.6068501869206 392.76178705073977 1118.6741818551814 389.6196425319002Q1118.7639574128625 386.4550541236403 1119.2577229801086 383.40268516248176Q1119.7290446579345 380.32787231190304 1120.3799174511228 377.90393225451254L1120.3799174511228 377.90393225451254Q1123.4547303017016 378.21814670639645 1126.6866503782226 378.3079222640776Q1129.918570454743 378.37525393233847 1132.993383305322 379.1832339514686L1132.993383305322 379.1832339514686Q1135.080665021408 379.6769995187148 1137.0332834009728 381.203183999294Q1138.963457891117 382.75181236929365 1139.9285451361893 384.6819868594379L1139.9285451361893 384.6819868594379Q1141.0731834966236 387.44258525813274 1141.1405151648846 390.8316125605955Q1141.2302907225658 394.2206398630581 1139.4572234583634 396.64457992044873L1139.4572234583634 396.64457992044873ZM1139.277672343001 350.5897188300283Q1137.9983706460448 353.0136588874188 1135.8213133722775 354.2256289161141Q1133.6218122090897 355.4375989448094 1131.0407649257572 355.7518133966933Q1128.4597176424247 356.0884717379976 1125.72156313315 355.9313645120556Q1122.9609647344555 355.7518133966933 1120.537024677065 355.4375989448094L1120.537024677065 355.4375989448094Q1119.0781718647463 349.78173881089805 1119.661712989674 344.4400931288707Q1120.222810225181 339.1208913362637 1119.8861518838767 335.39520569249675L1119.8861518838767 335.39520569249675Q1122.3100919412673 334.1159039955407 1125.946002027353 334.18323566380144Q1129.5819121134389 334.2730112214826 1132.8138321899596 334.9238840146708L1132.8138321899596 334.9238840146708Q1135.4173233627125 335.55231291843876 1137.4372734105377 336.94383406249625Q1139.4572234583634 338.31291131713357 1140.7365251553194 340.8939586004661L1140.7365251553194 340.8939586004661Q1142.038270741696 343.4750058837986 1141.2302907225658 346.0560531671311Q1140.4223107034354 348.659544339884 1139.277672343001 350.5897188300283L1139.277672343001 350.5897188300283ZM1174.2003642809611 305.83660332598424Q1172.7415114686428 320.5373508962695 1172.8088431369038 335.23809846655473Q1172.898618694585 349.93884603684006 1173.392384261831 364.6395936071254Q1173.863705939657 379.3627850668309 1174.11058872328 394.0635326371162Q1174.357471506903 408.76428020740144 1173.2128331464687 423.30792055174476L1173.2128331464687 423.30792055174476Q1174.357471506903 422.99370609986073 1177.746498809366 423.15081332580274Q1181.1355261118288 423.30792055174476 1184.9285434238564 423.3976961094259Q1188.7440046253046 423.46502777768666 1191.975924701825 423.3976961094259Q1195.207844778346 423.30792055174476 1196.0158247974762 422.3428333066726L1196.0158247974762 422.3428333066726Q1195.679166456172 415.87899315363114 1195.5220592302298 406.587222933634Q1195.364952004288 397.29545271363685 1195.364952004288 386.6346052390025Q1195.364952004288 375.95131387494786 1195.4322836725487 364.4824863811834Q1195.5220592302298 353.0136588874188 1195.679166456172 342.35281141278443Q1195.8362736821139 331.6919639381501 1196.0158247974762 322.3104181604719Q1196.172932023418 312.9288723827936 1196.172932023418 306.30792500381017L1196.172932023418 306.30792500381017L1174.2003642809611 305.83660332598424ZM1208.4497395363128 349.62463158495615Q1207.9559739690667 351.3976988491584 1206.9908867239944 354.3827361420561Q1206.0257994789222 357.3677734349537 1205.8686922529803 359.16328458857635L1205.8686922529803 359.16328458857635Q1205.374926685734 362.2156535497348 1205.217819459792 365.04358361669046Q1205.0607122338502 367.8715136836461 1205.0607122338502 370.78921930828284L1205.0607122338502 370.78921930828284Q1205.532033911676 376.13086499031016 1205.3075950174734 382.59470514335163Q1205.0607122338502 389.0585452963931 1205.374926685734 395.43260989175343Q1205.7115850270384 401.80667448711375 1207.3275450652986 407.6420857363873Q1208.9435051035591 413.45505309624053 1213.297619651094 417.3378459659495L1213.297619651094 417.3378459659495Q1218.9534797850051 422.99370609986073 1227.190387202249 424.4301150227589L1227.190387202249 424.4301150227589Q1231.7240528651464 424.4301150227589 1237.2228057731154 424.834105032324Q1242.6991147916647 425.23809504188904 1247.8836532477499 424.834105032324Q1253.0457478144149 424.4301150227589 1257.4896379196311 422.81415498449854Q1261.933528024847 421.1981949462382 1264.6941264235415 417.3378459659495L1264.6941264235415 417.3378459659495Q1266.3100864618023 415.72188592768913 1267.1853981491931 411.34532749073395Q1268.0831537260042 406.99121294319906 1268.6442509615113 401.49246003522984Q1269.2053481970183 395.9937071272605 1269.4522309806416 390.02363254146525Q1269.699113764265 384.0311140662497 1269.856220990207 379.3627850668309L1269.856220990207 379.3627850668309Q1269.699113764265 374.0211393848036 1269.5420065383228 368.9263764863994Q1269.3624554229605 363.83161358799515 1268.7340265191924 359.5672745981414Q1268.0831537260042 355.2804917188674 1266.7814081396282 352.04857164234664Q1265.502106442672 348.8166515658259 1263.2352736112234 347.35779875350755L1263.2352736112234 347.35779875350755Q1259.8462463087608 344.1258786769868 1255.1554734199217 342.4201430810453Q1250.4647005310826 340.73685137452406 1245.3026059644176 340.40019303321986L1245.3026059644176 340.40019303321986Q1241.8911347725343 340.08597858133595 1238.9060974796366 340.332861364959Q1235.921060186739 340.57974414858217 1232.6891401102184 340.24308580727785L1232.6891401102184 340.24308580727785Q1228.8063472405092 340.24308580727785 1225.0133299284817 340.73685137452406Q1221.2203126164536 341.20817305235 1217.898616982252 342.4201430810453Q1214.5993652374705 343.6321131097406 1212.0856496223987 345.42762426336316Q1209.571934007327 347.20069152756554 1208.4497395363128 349.62463158495615L1208.4497395363128 349.62463158495615ZM1228.6492400145676 368.67949370277626Q1230.758965620074 366.09844641944375 1234.1479929225366 365.1333591743716L1234.1479929225366 365.1333591743716Q1240.4547258496364 363.67450636205314 1244.315074829925 366.25555364538565Q1248.1978676996341 368.85904481813856 1249.005847718764 374.5149049520498L1249.005847718764 374.5149049520498Q1249.970934963836 379.1832339514686 1249.566944954271 384.4351040758149Q1249.1629549447061 389.68697420016105 1248.534526040938 394.87151265624635L1248.534526040938 394.87151265624635Q1247.5469949064454 398.9114127518972 1244.808840397171 400.1907144488534L1244.808840397171 400.1907144488534Q1242.6991147916647 401.3353528092878 1239.4671947151437 401.7393428188529Q1236.2352746386232 402.14333282841795 1233.2502373457255 401.4026844775487Q1230.2652000528278 400.6844800160996 1228.155474447321 398.66452996827417Q1226.0681927312348 396.64457992044873 1226.225299957177 392.9188942766818L1226.225299957177 392.9188942766818Q1226.5395144090608 387.26303414277044 1226.5395144090608 382.19071513378657Q1226.5395144090608 377.0959522353823 1227.190387202249 371.911413779297L1227.190387202249 371.911413779297Q1227.684152769495 369.3303664959645 1228.6492400145676 368.67949370277626L1228.6492400145676 368.67949370277626ZM1295.3973671504887 385.0186452007421Q1295.3973671504887 383.40268516248176 1295.3973671504887 381.85405679248225Q1295.3973671504887 380.32787231190304 1295.7115816023725 378.71191227364267L1295.7115816023725 378.71191227364267Q1296.3624543955607 374.9862266298757 1298.045746102082 371.6869748850941Q1299.7514816980233 368.36527925089234 1302.175421755414 365.6271247416178L1302.175421755414 365.6271247416178Q1304.1055962455584 364.01116470335745 1306.6193118606302 363.2705163524881Q1309.133027475702 362.552311891039 1311.7140747590342 362.866526342923Q1314.295122042367 363.2031846842272 1316.4721793161343 364.57226193886453Q1318.6492365899016 365.94133919350173 1319.6367677243943 368.36527925089234L1319.6367677243943 368.36527925089234Q1321.2527277626546 374.5149049520498 1321.4771666568572 381.203183999294Q1321.7240494404805 387.91390693595866 1321.7240494404805 394.37774708900014L1321.7240494404805 394.37774708900014Q1321.5669422145384 395.8365999013185 1321.3200594309155 397.3627843818977Q1321.0731766472923 398.9114127518972 1320.6018549694663 400.28049000653454Q1320.1080894022202 401.64956726117174 1319.3001093830899 402.70443006392503Q1318.49212936396 403.7592928666783 1317.0332765516414 404.23061454450425L1317.0332765516414 404.23061454450425Q1312.8362692300484 405.5323601308807 1307.9883891152672 404.8141556694316Q1303.140509000486 404.07350731856235 1300.2452472652699 400.5273727901576L1300.2452472652699 400.5273727901576Q1295.3973671504887 394.71440543030434 1295.3973671504887 386.4550541236403L1295.3973671504887 386.4550541236403L1295.3973671504887 385.0186452007421ZM1323.3400094787407 455.627121316952Q1325.2926278583054 455.4700140910101 1327.5370168003337 454.9762485237639Q1329.8038496317822 454.50492684593786 1332.0706824632312 453.29295681724267Q1334.3375152946796 452.08098678854736 1336.6716797943886 449.9712611830408Q1339.0282881835187 447.8615355775342 1341.2726771255466 444.31540104912955L1341.2726771255466 444.31540104912955Q1342.8886371638073 441.7343537657969 1342.7315299378652 437.9413364537691Q1342.574422711923 434.1258752523211 1342.7315299378652 430.26552627203245L1342.7315299378652 430.26552627203245Q1343.6966171829372 406.99121294319906 1343.6292855146767 384.9288696430611Q1343.5395099569955 362.866526342923 1342.8886371638073 342.66702586466846L1342.8886371638073 342.66702586466846Q1337.412328145258 342.66702586466846 1331.913575237289 342.4201430810453Q1326.4148223293196 342.19570418684253 1321.0731766472923 342.82413309061036L1321.0731766472923 342.82413309061036Q1320.6018549694663 343.6321131097406 1320.6691866377273 345.0236342537981Q1320.7589621954085 346.3927115084354 1320.8487377530896 347.7617887630726Q1320.9160694213501 349.13086601770993 1320.8487377530896 350.0286215945212Q1320.7589621954085 350.9039332819122 1320.1080894022202 350.5897188300283L1320.1080894022202 350.5897188300283Q1318.1779149120757 346.0560531671311 1313.73402480686 344.37276146060987Q1309.2901347016436 342.66702586466846 1304.1055962455584 343.00368420597266L1304.1055962455584 343.00368420597266Q1293.7814071122284 343.6321131097406 1288.282654204259 348.88398323408677Q1282.7839012962895 354.13585335843294 1280.2701856812178 361.8116635401697Q1277.7789139555666 369.4874737219064 1277.4422556142622 378.21814670639645Q1277.1280411623784 386.9488196908865 1277.1280411623784 394.53485431494215L1277.1280411623784 394.53485431494215Q1277.4422556142622 399.56228554508544 1278.4297867487549 404.3203901021854Q1279.3948739938269 409.07849465928535 1281.6617068252754 413.45505309624053L1281.6617068252754 413.45505309624053Q1283.0981157481738 416.52986594681926 1285.3649485796223 418.46004043696365Q1287.6317814110707 420.39021492710793 1290.4597114780263 421.5348532875424Q1293.2876415449819 422.65704775855653 1296.4297860638217 423.15081332580274Q1299.5943744720817 423.62213500362867 1302.6691873226605 423.62213500362867L1302.6691873226605 423.62213500362867Q1304.9135762646888 423.46502777768666 1307.5170674374413 423.46502777768666Q1310.098114720774 423.46502777768666 1312.5893864464256 423.15081332580274Q1315.1031020614969 422.81415498449854 1317.2801593352647 422.0061749653683Q1319.457216609032 421.1981949462382 1321.0731766472923 419.4251276820358L1321.0731766472923 419.4251276820358Q1320.7589621954085 422.3428333066726 1321.0731766472923 425.080987815947L1321.0731766472923 425.080987815947Q1321.2527277626546 426.3827334023235 1321.0731766472923 428.0660251088447Q1320.9160694213501 429.77176070478623 1320.7589621954085 431.3877207430466L1320.7589621954085 431.3877207430466Q1319.793874950336 435.9213864059437 1316.629286542076 437.8515608960881Q1313.4871420232366 439.78173538623236 1310.165446389035 439.46752093434844Q1306.866194644253 439.1533064824644 1304.1953718032396 436.63959086739277Q1301.5245489622257 434.1258752523211 1301.5245489622257 429.92886793072813L1301.5245489622257 429.92886793072813Q1299.5943744720817 429.6146534788442 1296.766444405126 429.36777069522105Q1293.9385143381705 429.120887911598 1290.9534770452724 429.05355624333714Q1287.9459958629545 428.963780685656 1285.2078413536801 429.21066346927915Q1282.4696868444057 429.4575462529022 1280.8537268061455 430.08597515667014L1280.8537268061455 430.08597515667014Q1280.6741756907832 431.3877207430466 1280.7639512484643 433.16078800724887Q1280.8537268061455 434.93385527145125 1281.2577168157104 436.8864736510158Q1281.6617068252754 438.8166481411602 1282.2228040607824 440.67949096304363Q1282.7839012962895 442.54233378492717 1283.4347740894777 443.6645282559413L1283.4347740894777 443.6645282559413Q1287.1380158438246 449.16328116391054 1293.1305343190402 452.3952012404314Q1299.100608904835 455.627121316952 1306.7090874183114 455.627121316952L1306.7090874183114 455.627121316952Q1313.3300347972945 455.627121316952 1317.5270421188875 455.784228542894Q1321.7240494404805 455.94133576883604 1323.3400094787407 455.627121316952L1323.3400094787407 455.627121316952Z " fill="#5555ff" transform="matrix(0.6512191094874938,0,0,0.6512191094874937,0,51.99193382279212)"/></g></svg>